<svg width="34" height="29" viewBox="0 0 34 29" fill="none" xmlns="http://www.w3.org/2000/svg">
<path fill-rule="evenodd" clip-rule="evenodd" d="M1.42789e-05 10.5391L6.08475 -1.26154e-05L9.24648 1.82541L3.16174 12.3645L1.42789e-05 10.5391Z" fill="#4EB047"/>
<path fill-rule="evenodd" clip-rule="evenodd" d="M3.04236 27.9898L3.04236 15.8203L6.69321 15.8203L6.69321 27.9898L3.04236 27.9898Z" fill="black"/>
<path fill-rule="evenodd" clip-rule="evenodd" d="M15.2118 13.3864L15.2118 1.21695L18.8627 1.21695L18.8627 13.3864L15.2118 13.3864Z" fill="black"/>
<path fill-rule="evenodd" clip-rule="evenodd" d="M15.2118 27.9898L15.2118 15.8203L18.8627 15.8203L18.8627 27.9898L15.2118 27.9898Z" fill="black"/>
<path fill-rule="evenodd" clip-rule="evenodd" d="M27.3813 13.3864L27.3813 1.21695L31.0322 1.21695L31.0322 13.3864L27.3813 13.3864Z" fill="black"/>
<path fill-rule="evenodd" clip-rule="evenodd" d="M24.339 27.1746L30.4237 16.6355L33.5854 18.4609L27.5007 29L24.339 27.1746Z" fill="#4EB047"/>
</svg>
